<?xml version="1.0" encoding="utf-8"?>
<svg width="47px" height="27px" viewBox="0 0 47 27" version="1.1" xmlns:xlink="http://www.w3.org/1999/xlink" xmlns="http://www.w3.org/2000/svg">
  <desc>Created with Lunacy</desc>
  <g id="green_arrow">
    <g id="green_arrow">
      <path d="M23.1168 14.4787C16.4886 14.3175 9.86039 14.3175 3.27235 13.7936C1.94671 13.6727 -0.22252 13.31 0.0185058 11.4966C0.420215 8.59507 5.08004 8.23239 7.24928 7.99059C13.4758 7.26522 19.8228 7.62791 26.0493 7.7891C28.6604 7.8294 34.445 8.07119 34.7664 7.91C34.0031 7.42641 29.9057 5.0488 28.6202 4.28313C27.3749 3.55776 25.5271 1.58313 27.3347 0.414475C29.1023 -0.713883 32.3159 0.736863 34.0031 1.50253C36.9758 2.87268 45.6527 9.19955 46.1749 11.0936C46.8578 13.5921 44.5279 15.5667 42.8006 16.9772C38.904 20.1607 34.7262 22.9413 30.5082 25.6816C30.0262 26.004 29.4236 26.1249 28.8612 26.2458C28.2988 26.3667 27.4954 26.1249 27.0536 25.8025C24.8843 24.3518 28.098 21.2891 29.263 20.4025C31.3117 18.8309 36.092 15.3249 36.4134 15.0831C34.8467 14.801 24.7638 14.519 23.1168 14.4787Z" transform="translate(0.3832037 0.3914949)" id="Path" fill="#C6EA84" stroke="none" />
    </g>
  </g>
</svg>