<?xml version="1.0" encoding="utf-8"?>
<svg width="184px" height="184px" viewBox="0 0 184 184" version="1.1" xmlns:xlink="http://www.w3.org/1999/xlink" xmlns="http://www.w3.org/2000/svg">
  <desc>Created with Lunacy</desc>
  <g id="Icon_Instinct">
    <g id="Icon_Instinct" transform="translate(84.92308 40.10257)" />
    <path d="M9.28126 65.8571C9.28126 65.8571 10.8164 65.8619 11.2882 65.8625L12.9416 65.868C18.2466 69.139 19.6648 27.5823 19.6729 24.7039C19.6742 24.453 19.6856 20.4464 19.689 19.0699C19.6908 18.4961 19.6858 17.8784 19.6806 17.2364C19.6643 15.218 19.646 12.9584 19.8301 11.0587C20.0721 9.05638 20.4323 7.1802 20.4377 5.17654C20.4391 4.80226 20.4438 3.17355 20.4444 2.79859C20.4447 2.75218 20.4132 2.6042 20.3733 2.41702C20.3048 2.09555 20.2117 1.65843 20.2126 1.42146C19.978 0.794246 19.1513 0.791519 18.5618 0.539271C16.0068 0.674326 13.5677 0.48507 11.1126 0.294579C9.25484 0.150436 7.38798 0.00558607 5.4549 6.47095e-06C5.34893 -0.000298879 4.95875 0.0238765 4.52837 0.0505419C3.99785 0.083412 3.40626 0.120066 3.2107 0.119313C1.79321 0.239301 0.728574 0.987863 0.606249 2.36568L0 7.87082L3.62136 62.7108C3.61343 65.5415 6.69508 65.7202 8.93097 65.8498C8.96912 65.852 9.00703 65.8542 9.04467 65.8564L9.28126 65.8571ZM10.2894 69.9829C8.40113 69.9774 6.74656 70.8621 5.09266 71.7489C3.31789 73.5253 2.36638 76.1934 2.35899 78.8649C2.35161 81.4096 4.34394 86.1222 6.81908 87.0194C7.64435 87.2765 8.58848 87.2792 9.53193 87.282C12.8357 87.2924 18.8563 86.0377 18.8698 81.3307C18.8704 81.0764 18.8718 80.6954 18.8718 80.6954C18.8722 80.5468 18.7928 80.0935 18.7269 79.7171C18.6799 79.4493 18.6398 79.2204 18.6401 79.1677C18.6401 79.0395 18.6442 77.6407 18.6448 77.5146C18.6448 77.3864 18.5287 76.7511 18.4111 76.6223C17.7141 72.8048 13.8288 69.994 10.2894 69.9829Z" transform="translate(81.77778 46.39316)" id="Stroke-1" fill="none" fill-rule="evenodd" stroke="#C6EA84" stroke-width="2" />
  </g>
</svg>