<?xml version="1.0" encoding="utf-8"?>
<svg width="169px" height="169px" viewBox="0 0 169 169" version="1.1" xmlns:xlink="http://www.w3.org/1999/xlink" xmlns="http://www.w3.org/2000/svg">
  <desc>Created with Lunacy</desc>
  <g id="LearnMore_Icon">
    <g id="Icon_book" transform="translate(46.94444 36.11111)">
      <path d="M71.9962 63.5398C71.3694 62.1595 70.2412 59.2734 70.2412 59.2734L72.3723 57.7677C72.3723 57.7677 69.0295 45.0523 65.7285 33.5499C64.1406 28.0287 57.4551 0.0465335 56.6194 0.00470656C51.7306 -0.162601 27.1611 4.14557 7.27148 10.5451C2.96765 13.0547 0.168061 16.0662 0.000921927 19.747C-0.0826478 21.1273 11.1575 84.5369 14.751 87.4648C19.3473 91.1455 25.9493 91.271 31.5485 90.8109C38.6937 90.2254 72.9572 78.3883 74.6704 76.7153C77.5548 74.5766 74.3699 68.2762 72.693 64.9592C72.4022 64.3839 72.1568 63.8983 71.9962 63.5398ZM33.2617 87.8412C36.8134 87.423 52.232 82.4874 53.8616 81.86C54.4708 81.6313 55.6541 81.2997 57.1438 80.8822C63.0107 79.238 73.6311 76.2616 72.6648 72.9927C72.4558 73.2436 36.8969 84.5369 30.5874 85.4153C25.9493 86.0845 20.6426 85.7917 17.4252 81.9018C15.0017 78.9321 14.2496 73.6201 17.0909 69.8975C19.9741 66.1749 68.5698 54.8398 68.5698 54.8398L55.1987 2.80711C55.1987 2.80711 13.0796 10.9634 8.77574 12.9292C7.10434 13.6821 5.22403 14.6441 4.09584 16.2335C3.26014 17.4465 2.80051 18.6177 2.75872 20.1235C2.75872 20.9182 13.7481 83.4076 16.882 85.5407C21.4365 88.7614 27.9968 88.5105 33.2617 87.8412ZM64.0571 64.9201C60.7275 65.972 56.4842 67.1265 52.0606 68.3301C39.7747 71.6729 26.098 75.3941 26.7432 78.3465C39.2369 74.2893 52.1066 71.5705 64.6421 67.6388C65.2688 69.521 66.397 71.4032 68.0266 72.5326C66.6477 73.3273 39.9472 80.3124 36.5627 81.2744C32.0917 82.571 26.785 83.8677 22.314 82.1109C20.2248 81.2744 18.6787 79.3504 18.3027 77.1754L18.3007 77.1652C17.9666 75.4094 17.5139 73.0303 20.183 70.8595C22.899 68.7263 61.8425 59.0225 64.8928 58.2696C63.9735 60.3609 63.7646 62.6614 64.0571 64.9201ZM67.3581 59.4407C65.0181 64.6691 71.9126 70.734 71.9962 70.734C71.453 69.4374 67.7341 60.6956 67.3581 59.4407Z" id="Shape" fill="#C6EA84" fill-rule="evenodd" stroke="none" />
      <path d="M40.5254 0.954662C40.5254 0.954662 43.3073 12.4521 44.0547 18.3046C44.2623 19.9649 5.56393 28.8889 5.56393 28.8889L0 10.7503L38.823 0L40.5254 0.954662ZM3.11414 12.4936L7.26633 25.7344L41.5219 16.7273C41.5219 16.7273 38.9475 7.26373 38.0756 2.947C35.2106 3.5696 3.11414 12.4936 3.11414 12.4936Z" transform="translate(8.666667 7.944444)" id="Shape" fill="#C6EA84" fill-rule="evenodd" stroke="none" />
    </g>
  </g>
</svg>