<?xml version="1.0" encoding="utf-8"?>
<svg width="64px" height="50px" viewBox="0 0 64 50" version="1.1" xmlns:xlink="http://www.w3.org/1999/xlink" xmlns="http://www.w3.org/2000/svg">
  <desc>Created with Lunacy</desc>
  <g id="paw_menu">
    <g id="paw_menu">
      <g id="Group">
        <g id="Group">
          <path d="M9.95588 17.5215C15.4544 17.5215 19.9118 13.5991 19.9118 8.76073C19.9118 3.92231 15.4544 0 9.95588 0C4.4574 0 0 3.92231 0 8.76073C0 13.5991 4.4574 17.5215 9.95588 17.5215Z" transform="matrix(0.008048881 -0.9999676 0.9999676 0.008048881 12.84187 19.95024)" id="Oval" fill="#B5CAE7" stroke="none" />
          <path d="M6.05163 14.0395C9.39386 14.0395 12.1033 10.8967 12.1033 7.01975C12.1033 3.14285 9.39386 0 6.05163 0C2.70941 0 0 3.14285 0 7.01975C0 10.8967 2.70941 14.0395 6.05163 14.0395Z" transform="matrix(0.9429663 -0.3328881 0.3328881 0.9429663 0.08159536 17.88511)" id="Oval" fill="#B5CAE7" stroke="none" />
        </g>
        <g id="Group" transform="translate(33.46405 0)">
          <path d="M8.77066 19.8892C13.6146 19.8892 17.5413 15.4369 17.5413 9.94461C17.5413 4.45235 13.6146 0 8.77066 0C3.92676 0 0 4.45235 0 9.94461C0 15.4369 3.92676 19.8892 8.77066 19.8892Z" transform="matrix(0.9999676 -0.008048974 0.008048974 0.9999676 0.03272481 0.210088)" id="Oval" fill="#B5CAE7" stroke="none" />
          <path d="M7.0277 12.0896C10.909 12.0896 14.0554 9.38323 14.0554 6.04479C14.0554 2.70634 10.909 0 7.0277 0C3.14641 0 0 2.70634 0 6.04479C0 9.38323 3.14641 12.0896 7.0277 12.0896Z" transform="matrix(0.3328881 -0.9429663 0.9429663 0.3328881 14.39768 27.09858)" id="Oval" fill="#B5CAE7" stroke="none" />
        </g>
      </g>
      <path d="M44.484 19.0554C44.3027 24.9886 40.5659 27.1891 36.9546 27.6766C33.6573 28.0389 31.6943 27.406 29.3103 26.6374C28.6699 26.431 27.9991 26.2147 27.264 26.0053C24.2383 25.1418 22.2444 25.2254 22.2444 25.2254C22.2444 25.2254 20.2505 25.1418 17.2247 26.0053C16.4896 26.2147 15.8188 26.431 15.1784 26.6374C12.7945 27.406 10.8314 28.0389 7.53412 27.6766C3.92279 27.1891 0.185969 24.9747 0.00470515 19.0554C-0.078955 16.1167 0.952853 12.5791 3.11407 9.51505C10.1136 -0.41531 22.2583 0.00251733 22.2583 0.00251733C22.2583 0.00251733 34.403 -0.401382 41.4025 9.51505C43.5359 12.5791 44.5677 16.1167 44.484 19.0554ZM19.1629 19.9468L20.4875 19.9468C20.6827 19.8911 20.9058 19.8911 21.1149 19.8772C21.2683 19.8632 21.3241 19.8215 21.4635 19.7797C21.7842 19.724 21.8679 19.7379 22.0492 19.4036C22.0631 19.3897 22.091 19.334 22.091 19.3061L22.091 18.8187L22.0631 18.749L22.0631 18.0109C22.0631 18.0109 22.0352 17.9691 22.0213 17.9552C22.0073 17.8995 21.9237 17.7741 21.9097 17.7602C21.8818 17.7045 21.7563 17.593 21.7424 17.593L21.6308 17.5652C20.9476 17.5791 20.2783 17.5652 19.5951 17.5234C19.6091 17.4816 19.5951 17.4259 19.5672 17.3702L19.5672 16.8131L19.623 16.7852C19.7485 16.7713 20.3202 16.7017 20.4457 16.7017C20.6966 16.646 21.0034 16.5485 21.101 16.2839C21.1428 16.1446 21.1289 15.9914 21.1568 15.88C21.1707 15.8242 21.1847 15.5875 21.1986 15.5318C21.1568 15.4203 21.1707 15.3089 21.1568 15.1975C21.101 14.8911 21.0034 14.6125 20.6688 14.6125C20.2783 14.6125 19.9158 14.6822 19.5254 14.6822C19.4975 14.6822 19.4836 14.6822 19.4557 14.6683L19.4557 14.0415C19.4557 13.9719 19.4836 13.5401 19.4836 13.4566L20.111 13.4566L20.2086 13.4148L20.864 13.4148C20.9337 13.373 21.0173 13.3869 21.101 13.373C21.3799 13.373 21.6308 13.3591 21.8121 13.1362L21.8121 13.1223C21.8121 13.1084 21.7982 13.0944 21.7842 13.0944L21.7982 13.0805C21.84 13.0527 21.8539 13.0527 21.8539 13.0248L21.8539 13.0109L21.8261 12.983C21.8261 12.8716 21.8818 12.7323 21.8818 12.607C21.8818 12.593 21.8818 12.5513 21.8679 12.5513L21.8958 12.5095C21.8958 12.5095 21.9097 12.4677 21.9097 12.4538C21.9097 12.4398 21.8958 12.3702 21.8958 12.3563L21.8818 12.3006L21.8958 12.2449L21.8958 12.2309L21.8818 12.2031C21.8818 12.2031 21.8958 12.1752 21.8958 12.1613C21.8958 11.9942 21.8958 11.6738 21.8679 11.5346C21.84 11.4649 21.7563 11.3813 21.7563 11.3117C21.7563 11.2699 21.7703 11.2699 21.7703 11.2421L21.7703 11.2281C21.603 11.1724 21.5332 11.1724 21.3799 11.1724C21.0592 11.1724 20.7524 11.256 20.4038 11.256C20.2365 11.2699 19.4696 11.256 19.3023 11.2421L19.2186 11.2421C19.0234 11.2421 18.1311 11.2281 17.9498 11.2281L17.2387 11.2281C17.155 11.2281 17.1132 11.3256 17.1132 11.3953L17.0017 15.2254C17.0017 15.2532 17.0156 15.4621 17.0156 15.49L17.0156 15.685C17.0156 15.7177 17.0166 15.7476 17.0175 15.7762C17.02 15.8569 17.0223 15.9266 17.0017 16.0192L17.0017 18.568L16.9877 18.7351L16.9877 19.6543C16.9738 19.7657 17.1271 19.8772 17.2247 19.8772C17.8661 19.8493 18.5075 19.8772 19.1629 19.9468ZM6.83695 19.9607C6.75329 19.9329 6.55808 19.9607 6.55808 19.8075C6.57203 19.5151 6.61386 19.3618 6.69752 19.0972C6.73935 18.8883 6.73935 18.7351 6.79512 18.5401L6.87878 16.9106C6.87878 16.8967 6.86484 16.6878 6.86484 16.5903C6.86484 16.5763 6.85089 16.5346 6.85089 16.5206L6.90667 15.4621C6.86484 15.0025 6.86484 14.5708 6.89272 14.139C6.93455 13.5401 7.0461 12.9691 7.11582 12.3841C7.12976 12.3424 7.15765 12.0638 7.15765 12.022C7.18553 11.827 7.26919 11.2699 7.52017 11.2142C7.92264 11.1975 8.32006 11.2109 8.7155 11.2243C8.97763 11.2332 9.23888 11.2421 9.50013 11.2421L9.94632 11.2421C9.98815 11.2421 10.1415 11.3117 10.1834 11.3256C10.3786 11.5067 10.3367 11.7574 10.3786 12.0081C10.3786 12.0638 10.4483 12.3841 10.4622 12.4956L10.5598 12.8855L10.6156 13.373C10.6435 13.4983 10.7411 13.749 10.769 13.8883C10.7618 13.9097 10.7693 13.9712 10.7764 14.0299C10.7832 14.0859 10.7897 14.1393 10.7829 14.1529C10.7969 14.1808 10.8526 14.2922 10.8526 14.3061C10.8526 14.3201 10.8805 14.4315 10.9084 14.4872C10.9224 14.2644 10.9921 14.0137 11.0339 13.7908C11.0339 13.763 11.0618 13.4566 11.0897 13.4008C11.0897 13.373 11.1594 13.1641 11.1594 13.1223C11.1873 13.0527 11.2709 12.6209 11.2849 12.5513C11.2709 12.2031 11.3685 11.8688 11.4661 11.5763C11.5359 11.3674 11.6195 11.2003 11.8426 11.2003C12.048 11.1905 12.2054 11.2013 12.3822 11.2134C12.4574 11.2186 12.5361 11.224 12.6234 11.2281L12.972 11.2421C13.0836 11.2421 13.8505 11.3256 13.9481 11.3396C14.2688 11.3813 14.2966 11.4371 14.3942 11.7156C14.3942 11.7295 14.4082 11.7435 14.4082 11.7574L14.4919 12.0081C14.4919 12.022 14.5058 12.0638 14.5058 12.0777L14.5616 12.9134L14.6592 13.4844L14.7847 15.0304C14.8125 15.1836 14.8404 15.4343 14.8683 15.6153C14.8823 15.9357 14.9241 16.2839 14.9659 16.5903C14.9553 16.6326 14.9689 16.7153 14.976 16.7586C14.9783 16.7722 14.9799 16.7819 14.9799 16.7852C14.9799 16.8041 14.9751 16.8581 14.9693 16.9234C14.9579 17.051 14.9428 17.2219 14.952 17.2588C14.9441 17.3217 14.954 17.3757 14.9641 17.4309C14.9719 17.4735 14.9799 17.5167 14.9799 17.5652C14.9844 17.6335 14.992 17.7034 14.9996 17.7737C15.0152 17.9184 15.0311 18.0653 15.0217 18.2059C15.0078 18.3173 14.9938 18.4426 14.9799 18.5541C14.9659 18.8465 14.9799 19.1529 14.9659 19.4593C14.9407 19.8244 14.5966 19.8026 14.3145 19.7848C14.2844 19.7829 14.2551 19.781 14.2269 19.7797C14.212 19.7797 14.1602 19.7817 14.0911 19.7843C13.9022 19.7916 13.5846 19.8038 13.5437 19.7936C13.524 19.8034 13.3934 19.7994 13.2888 19.7962C13.245 19.7948 13.2058 19.7936 13.1812 19.7936C13.1115 19.7936 12.8465 19.7797 12.7908 19.7379C12.7489 19.7379 12.6374 19.7379 12.6095 19.6822C12.5956 19.6404 12.5816 19.6125 12.5816 19.5708C12.4995 19.1745 12.5114 18.8319 12.525 18.4377L12.5258 18.4148L12.5258 18.3034C12.5258 18.2616 12.5119 17.9412 12.498 17.8437L12.498 17.7045C12.498 17.6811 12.5027 17.6076 12.5084 17.5182C12.5197 17.3408 12.5351 17.1008 12.5258 17.0638C12.5258 16.9245 12.498 16.256 12.4701 16.0889C12.4701 16.061 12.4701 15.9914 12.4282 15.9914C12.3446 15.9914 12.3027 16.3117 12.2888 16.3813C12.2191 16.6738 12.1633 16.9245 12.0518 17.217C11.996 17.7184 11.8566 18.2198 11.6614 18.6794C11.6474 18.8326 11.5916 18.944 11.5777 19.0833C11.5777 19.1112 11.5219 19.4036 11.5219 19.4454C11.508 19.4872 11.4801 19.6822 11.4522 19.724C11.4383 19.7936 11.2431 19.8354 11.1594 19.8493C11.0897 19.8632 10.8108 19.8632 10.755 19.8772L10.2391 19.8354C10.2252 19.8354 10.0579 19.8075 10.0021 19.7936C9.90449 19.7936 9.76505 19.7797 9.70928 19.6822C9.69534 19.6683 9.69534 19.6265 9.69534 19.5986C9.65351 19.1251 9.50013 18.6515 9.40253 18.1641C9.38858 18.0805 9.31887 17.9691 9.30492 17.9134C9.23521 17.7184 9.22126 17.607 9.17943 17.412C9.17943 17.3424 9.1376 17.3424 9.09577 17.2866C8.99817 17.1195 9.02606 16.8967 8.92845 16.7156L8.92845 16.7713C8.92845 16.8827 8.95634 17.0081 8.95634 17.1195C8.95634 17.3006 8.90057 17.4538 8.90057 17.6209C8.89359 17.7045 8.89708 17.7915 8.90057 17.8786C8.90405 17.9656 8.90754 18.0527 8.90057 18.1362C8.87268 18.6098 8.83085 19.0833 8.73325 19.5568C8.71651 19.6348 8.70703 19.7011 8.699 19.7573C8.66688 19.9819 8.65795 20.0443 8.301 20.0443L7.53412 20.0443L7.07399 20.0164C7.0461 20.0164 6.86484 19.9607 6.83695 19.9607ZM24.6844 19.7936C24.5311 19.7657 24.4892 19.6404 24.4474 19.5011C24.4039 19.3003 24.3965 18.5811 24.387 17.6726C24.3723 16.2501 24.3527 14.3634 24.1825 13.2755C24.1769 13.0861 24.1579 12.8967 24.139 12.7073C24.1105 12.4231 24.0821 12.139 24.0988 11.8549C24.0988 11.827 24.1128 11.7435 24.1128 11.7295C24.1358 11.4876 24.1971 11.4839 24.3596 11.4741C24.3935 11.472 24.4319 11.4697 24.4753 11.4649C24.5311 11.4649 24.7681 11.4371 24.8239 11.4231C24.9633 11.4371 25.6326 11.4371 25.786 11.4231C25.8278 11.4231 26.0927 11.4092 26.1624 11.3953C26.1764 11.3953 26.3019 11.3813 26.3298 11.3813L26.3437 11.3813C26.4971 11.3813 26.5668 11.4928 26.6226 11.6042C26.6226 11.6181 26.6365 11.646 26.6505 11.6599C26.7899 12.0499 26.9572 12.4398 27.0966 12.8437C27.1245 12.9134 27.1803 12.9969 27.2082 13.0666C27.3058 13.3034 27.4034 13.5541 27.501 13.7908C27.5428 13.8883 27.6544 13.9997 27.6962 14.0972C27.6962 14.1112 27.7102 14.1529 27.7102 14.1808C27.738 14.3479 27.8635 14.5011 27.9332 14.6683C27.9332 14.6822 27.9751 14.8215 27.9751 14.8354L28.0866 15.0582L28.0866 15.0304C28.0958 14.7172 28.0807 14.4041 28.0653 14.0868C28.0574 13.9244 28.0495 13.7609 28.0448 13.5958C28.0448 13.5958 28.0169 13.5401 28.0169 13.5262C27.9472 13.1223 27.9332 12.6905 27.9611 12.2588C27.9611 11.9942 28.003 11.7295 28.0727 11.4788C28.0866 11.451 28.1145 11.451 28.1285 11.4371C28.4492 11.3535 28.7698 11.3674 29.1045 11.3396C29.3973 11.3256 29.6622 11.2839 29.9411 11.2839L30.0945 11.2839C30.206 11.3117 30.1502 11.4231 30.206 11.5067L30.1781 12.0359L30.1921 12.1195L30.1642 12.8159C30.1642 12.8437 30.1921 12.9273 30.1921 12.9412C30.1781 13.0109 30.1781 13.3173 30.1642 13.373C30.1781 13.3869 30.1921 13.4148 30.1921 13.4287L30.1921 19.3618C30.1921 19.3758 30.1921 19.4036 30.1781 19.4036C30.0666 19.529 30.0108 19.6404 29.8295 19.6961C29.6901 19.71 29.1184 19.724 28.9929 19.724L28.4073 19.724C28.3376 19.71 28.0866 19.6822 28.0308 19.6265C27.6962 19.334 27.6683 19.0137 27.5149 18.6376C27.501 18.6098 27.4173 18.4426 27.4173 18.4148C27.4034 18.373 27.3197 18.0944 27.2919 18.0527C27.2082 17.8855 27.0827 17.6488 27.0269 17.4677C27.0269 17.4538 27.0269 17.3702 27.013 17.3563C26.9851 17.2588 26.9433 17.1195 26.8875 17.0359C26.8317 16.9384 26.8317 16.841 26.7899 16.7295C26.7341 16.5624 26.5947 16.3674 26.4692 16.2142C26.4413 16.2281 26.4413 16.2699 26.4413 16.2839C26.4345 16.4003 26.4444 16.52 26.4547 16.6432C26.4654 16.7705 26.4763 16.9014 26.4692 17.0359C26.4552 17.3424 26.4134 17.6627 26.3995 17.9691C26.3995 18.0883 26.4136 18.2048 26.4279 18.3222C26.4453 18.4653 26.4629 18.6099 26.4552 18.763L26.4552 18.8605C26.4413 18.9162 26.3995 19.3479 26.3995 19.4036C26.3716 19.6543 26.3019 19.71 26.0509 19.7379C25.9533 19.7518 25.3816 19.7936 25.2282 19.8215L25.0888 19.8215C25.0051 19.8075 24.7263 19.7936 24.6844 19.7936ZM33.2736 19.334C33.2038 19.2504 33.1481 19.0833 33.0923 19.0137L32.6322 17.9691C32.5764 17.8855 32.5764 17.6905 32.5764 17.593C32.5485 17.4677 32.4648 17.3563 32.423 17.2309C32.423 17.1334 32.3672 16.841 32.3672 16.827C32.3533 16.7295 32.3533 16.3117 32.3672 16.2421L32.1999 13.6237C32.1999 13.568 32.2417 13.2755 32.2557 13.2337C32.2557 13.1919 32.2696 13.0109 32.2696 12.9691L32.2696 12.3702C32.2696 12.0638 32.2975 11.5346 32.674 11.4788C32.7019 11.4788 32.8274 11.451 32.8692 11.451C33.3433 11.4231 33.8173 11.3674 34.3193 11.3674C34.64 11.3674 34.6818 11.4371 34.8352 11.6878C34.8492 11.7295 34.877 11.7295 34.877 11.7295L34.877 11.7574C34.877 11.9245 34.8352 12.0638 34.8073 12.2309C34.7964 12.2635 34.8025 12.3977 34.8057 12.4685C34.8066 12.4884 34.8073 12.5033 34.8073 12.5095C34.7934 12.8437 34.7934 13.178 34.7655 13.5123C34.7515 13.5123 34.7376 13.5401 34.7376 13.5401C34.7376 13.554 34.7515 13.568 34.7655 13.568L34.7655 14.5429C34.7515 14.5568 34.7376 14.5708 34.7376 14.5847C34.7376 14.5847 34.7655 14.6125 34.7655 14.6265L34.7655 14.6404C34.7655 14.9747 34.7237 15.2671 34.6539 15.6014C34.64 15.6014 34.64 15.6293 34.64 15.6432C34.64 15.866 34.64 16.1446 34.6679 16.3535L34.7655 16.7435C34.8213 17.0359 34.8352 17.3424 35.2117 17.3424C35.7694 17.3424 35.8949 16.6878 36.0343 16.2839L36.0483 16.2421C36.0622 16.2281 36.1041 15.8103 36.118 15.6571C36.1319 15.4482 36.1319 15.2393 36.1319 15.0443C36.1319 14.8215 36.118 14.6125 36.118 14.3897C36.118 14.2365 36.1319 14.0833 36.1319 13.9301L36.1319 13.9162C36.1041 13.5819 36.0762 13.1641 36.0065 12.8159C36.0065 12.6766 35.9786 12.0777 35.9646 11.9385L35.9646 11.8827C35.9646 11.5485 36.2714 11.5346 36.5084 11.3953C36.606 11.3813 37.108 11.3674 37.2195 11.3674L37.5821 11.3674C37.6355 11.3674 37.6862 11.3664 37.7341 11.3655C38.086 11.3585 38.2892 11.3545 38.3629 11.7713C38.3629 11.7852 38.3768 11.9663 38.3768 11.9802C38.3768 11.9942 38.4326 12.0777 38.4326 12.0777C38.4744 12.1474 38.5441 12.3702 38.5441 12.3841L38.5441 13.3034C38.5581 13.3173 38.5581 13.4008 38.5581 13.4148L38.5581 13.4426C38.5581 13.4844 38.5581 13.6933 38.5441 13.7351L38.5441 15.2671C38.5581 15.3646 38.572 15.4064 38.572 15.49C38.572 15.9774 38.5163 16.4092 38.3768 16.8688L38.1537 18.4287C38.1119 18.8047 37.847 19.0972 37.6099 19.3758L37.4566 19.529C36.8012 20.0861 36.1459 20.1418 35.3093 20.1418L35.128 20.1418C34.4448 20.1418 33.7058 19.8772 33.2736 19.334ZM26.9317 16.5167C27.0317 16.5167 27.0317 16.7167 26.9317 16.7167C26.7317 16.6167 26.7317 16.5167 26.9317 16.5167Z" transform="translate(9.783529 22.10055)" id="Shape" fill="#B5CAE7" fill-rule="evenodd" stroke="none" />
    </g>
  </g>
</svg>